<svg xmlns="http://www.w3.org/2000/svg" xmlns:xlink="http://www.w3.org/1999/xlink" style="margin:auto;display:block;z-index:1;position:relative;" width="1920" height="944" preserveAspectRatio="xMidYMid" viewBox="0 0 1920 944">
<g transform="translate(960,472) scale(1,1) translate(-960,-472)"><path id="path0" d="M 1417.7188873450168 628.5242657069214
c 0 32.09110953205885 -7.852079991886739 9.21765912091052 -17.069739112797258 9.21765912091052
S 1383.5794091194225 660.6153752389803 1383.5794091194225 628.5242657069214
s 7.852079991886739 -9.21765912091052 17.069739112797258 -9.21765912091052
S 1417.7188873450168 596.4331561748625 1417.7188873450168 628.5242657069214
z" fill="none" stroke="none"></path>
<circle cx="0" cy="0" r="5.048684156071319" fill="#290e0e">
  <animateMotion begin="-1.9137693989927085s" dur="10s" repeatCount="indefinite">
    <mpath xlink:href="#path0"></mpath>
  </animateMotion>
</circle><path id="path1" d="M 1582.4754392310447 225.93517022985728
c 0 30.70577373804138 -7.513114850797359 8.819743520501248 -16.332858371298606 8.819743520501248
S 1549.8097224884473 256.64094396789864 1549.8097224884473 225.93517022985728
s 7.513114850797359 -8.819743520501248 16.332858371298606 -8.819743520501248
S 1582.4754392310447 195.2293964918159 1582.4754392310447 225.93517022985728
z" fill="none" stroke="none"></path>
<circle cx="0" cy="0" r="5.191342589980467" fill="#3f3f3f">
  <animateMotion begin="-9.495318079454176s" dur="10s" repeatCount="indefinite">
    <mpath xlink:href="#path1"></mpath>
  </animateMotion>
</circle><path id="path2" d="M 977.5123922516278 177.52921297177224
c 0 23.535210518646014 -5.7586153396687045 6.760113659611089 -12.518728999279794 6.760113659611089
S 952.4749342530682 201.06442349041825 952.4749342530682 177.52921297177224
s 5.7586153396687045 -6.760113659611089 12.518728999279794 -6.760113659611089
S 977.5123922516278 153.99400245312623 977.5123922516278 177.52921297177224
z" fill="none" stroke="none"></path>
<circle cx="0" cy="0" r="4.6143433898313235" fill="#000000">
  <animateMotion begin="-9.254094674658575s" dur="10s" repeatCount="indefinite">
    <mpath xlink:href="#path2"></mpath>
  </animateMotion>
</circle><path id="path3" d="M 46.32431403940979 176.8764876947211
c 0 35.72175269709202 -8.740428851416132 10.260503434271113 -19.000932285687245 10.260503434271113
S 8.322449468035302 212.59824039181314 8.322449468035302 176.8764876947211
s 8.740428851416132 -10.260503434271113 19.000932285687245 -10.260503434271113
S 46.32431403940979 141.15473499762908 46.32431403940979 176.8764876947211
z" fill="none" stroke="none"></path>
<circle cx="0" cy="0" r="4.315161699809884" fill="#290e0e">
  <animateMotion begin="-8.058138947949445s" dur="10s" repeatCount="indefinite">
    <mpath xlink:href="#path3"></mpath>
  </animateMotion>
</circle><path id="path4" d="M 1136.7364199942779 863.7868653871666
c 0 36.47458732887066 -8.924633069830053 10.476743168930934 -19.40137623876099 10.476743168930934
S 1097.9336675167558 900.2614527160373 1097.9336675167558 863.7868653871666
s 8.924633069830053 -10.476743168930934 19.40137623876099 -10.476743168930934
S 1136.7364199942779 827.3122780582959 1136.7364199942779 863.7868653871666
z" fill="none" stroke="none"></path>
<circle cx="0" cy="0" r="7.472127114367628" fill="#000000">
  <animateMotion begin="-7.776519925185015s" dur="10s" repeatCount="indefinite">
    <mpath xlink:href="#path4"></mpath>
  </animateMotion>
</circle><path id="path5" d="M 1157.6147878470017 348.19509799406546
c 0 28.790113345346636 -7.044389435563538 8.269500641748502 -15.31389007731204 8.269500641748502
S 1126.9870076923778 376.9852113394121 1126.9870076923778 348.19509799406546
s 7.044389435563538 -8.269500641748502 15.31389007731204 -8.269500641748502
S 1157.6147878470017 319.4049846487188 1157.6147878470017 348.19509799406546
z" fill="none" stroke="none"></path>
<circle cx="0" cy="0" r="5.258007246445352" fill="#5a0b0b">
  <animateMotion begin="-9.706055214721376s" dur="10s" repeatCount="indefinite">
    <mpath xlink:href="#path5"></mpath>
  </animateMotion>
</circle><path id="path6" d="M 1092.8870083741813 329.97135394606084
c 0 34.427078460826216 -8.4236468574362 9.88862891959902 -18.31227577703522 9.88862891959902
S 1056.2624568201109 364.3984324068871 1056.2624568201109 329.97135394606084
s 8.4236468574362 -9.88862891959902 18.31227577703522 -9.88862891959902
S 1092.8870083741813 295.5442754852346 1092.8870083741813 329.97135394606084
z" fill="none" stroke="none"></path>
<circle cx="0" cy="0" r="7.571043983379973" fill="#5a0b0b">
  <animateMotion begin="-6.842257345997254s" dur="10s" repeatCount="indefinite">
    <mpath xlink:href="#path6"></mpath>
  </animateMotion>
</circle><path id="path7" d="M 1016.4555071049493 606.2924627839031
c 0 36.997706096715866 -9.052630215153881 10.627000687354558 -19.67963090250844 10.627000687354558
S 977.0962452999325 643.290168880619 977.0962452999325 606.2924627839031
s 9.052630215153881 -10.627000687354558 19.67963090250844 -10.627000687354558
S 1016.4555071049493 569.2947566871873 1016.4555071049493 606.2924627839031
z" fill="none" stroke="none"></path>
<circle cx="0" cy="0" r="5.18690379381498" fill="#5a0b0b">
  <animateMotion begin="-3.513349861854076s" dur="10s" repeatCount="indefinite">
    <mpath xlink:href="#path7"></mpath>
  </animateMotion>
</circle><path id="path8" d="M 708.3495014718026 358.5250588819358
c 0 24.538574695031794 -6.004119340273736 7.048314008147431 -13.052433348421166 7.048314008147431
S 682.2446347749603 383.0636335769676 682.2446347749603 358.5250588819358
s 6.004119340273736 -7.048314008147431 13.052433348421166 -7.048314008147431
S 708.3495014718026 333.986484186904 708.3495014718026 358.5250588819358
z" fill="none" stroke="none"></path>
<circle cx="0" cy="0" r="7.4153868801005345" fill="#9c0404">
  <animateMotion begin="-8.915179785845233s" dur="10s" repeatCount="indefinite">
    <mpath xlink:href="#path8"></mpath>
  </animateMotion>
</circle><path id="path9" d="M 1834.4441373084185 427.8737283164373
c 0 25.709447023076756 -6.290609377986865 7.384628400245451 -13.675237778232317 7.384628400245451
S 1807.093661751954 453.583175339514 1807.093661751954 427.8737283164373
s 6.290609377986865 -7.384628400245451 13.675237778232317 -7.384628400245451
S 1834.4441373084185 402.16428129336055 1834.4441373084185 427.8737283164373
z" fill="none" stroke="none"></path>
<circle cx="0" cy="0" r="7.765378346645952" fill="#3f3f3f">
  <animateMotion begin="-3.912553658171134s" dur="10s" repeatCount="indefinite">
    <mpath xlink:href="#path9"></mpath>
  </animateMotion>
</circle><path id="path10" d="M 1894.2351382945646 858.4127739538409
c 0 32.57428987899991 -7.970304970393595 9.356444965244657 -17.326749935638254 9.356444965244657
S 1859.5816384232883 890.9870638328408 1859.5816384232883 858.4127739538409
s 7.970304970393595 -9.356444965244657 17.326749935638254 -9.356444965244657
S 1894.2351382945646 825.838484074841 1894.2351382945646 858.4127739538409
z" fill="none" stroke="none"></path>
<circle cx="0" cy="0" r="7.414840864992285" fill="#000000">
  <animateMotion begin="-1.9975878409230807s" dur="10s" repeatCount="indefinite">
    <mpath xlink:href="#path10"></mpath>
  </animateMotion>
</circle><path id="path11" d="M 1722.6791216961465 404.2082734602649
c 0 32.25036845881558 -7.891047601625087 9.263403706255538 -17.154451307880624 9.263403706255538
S 1688.3702190803851 436.45864191908043 1688.3702190803851 404.2082734602649
s 7.891047601625087 -9.263403706255538 17.154451307880624 -9.263403706255538
S 1722.6791216961465 371.9579050014493 1722.6791216961465 404.2082734602649
z" fill="none" stroke="none"></path>
<circle cx="0" cy="0" r="6.102449406576598" fill="#3f3f3f">
  <animateMotion begin="-8.135598121138635s" dur="10s" repeatCount="indefinite">
    <mpath xlink:href="#path11"></mpath>
  </animateMotion>
</circle><path id="path12" d="M 1734.549352908545 419.7038322850242
c 0 32.085220031456174 -7.850638943866935 9.215967455843794 -17.06660639971073 9.215967455843794
S 1700.4161401091235 451.78905231648037 1700.4161401091235 419.7038322850242
s 7.850638943866935 -9.215967455843794 17.06660639971073 -9.215967455843794
S 1734.549352908545 387.618612253568 1734.549352908545 419.7038322850242
z" fill="none" stroke="none"></path>
<circle cx="0" cy="0" r="7.518585946624542" fill="#5a0b0b">
  <animateMotion begin="-8.860769823815623s" dur="10s" repeatCount="indefinite">
    <mpath xlink:href="#path12"></mpath>
  </animateMotion>
</circle><path id="path13" d="M 1368.837632057594 640.1923471269148
c 0 34.654236062515864 -8.479227972743242 9.953876315829026 -18.433104288572267 9.953876315829026
S 1331.9714234804496 674.8465831894307 1331.9714234804496 640.1923471269148
s 8.479227972743242 -9.953876315829026 18.433104288572267 -9.953876315829026
S 1368.837632057594 605.5381110643989 1368.837632057594 640.1923471269148
z" fill="none" stroke="none"></path>
<circle cx="0" cy="0" r="6.356406415110046" fill="#000000">
  <animateMotion begin="-8.163134803265324s" dur="10s" repeatCount="indefinite">
    <mpath xlink:href="#path13"></mpath>
  </animateMotion>
</circle><path id="path14" d="M 1110.375715899154 878.7592683651114
c 0 33.70637836724671 -8.247305345177386 9.681619318251714 -17.9289246634291 9.681619318251714
S 1074.5178665722958 912.4656467323581 1074.5178665722958 878.7592683651114
s 8.247305345177386 -9.681619318251714 17.9289246634291 -9.681619318251714
S 1110.375715899154 845.0528899978648 1110.375715899154 878.7592683651114
z" fill="none" stroke="none"></path>
<circle cx="0" cy="0" r="6.225205784143587" fill="#3f3f3f">
  <animateMotion begin="-1.911640535080168s" dur="10s" repeatCount="indefinite">
    <mpath xlink:href="#path14"></mpath>
  </animateMotion>
</circle><path id="path15" d="M 760.9921624428383 906.3321016636401
c 0 27.028963426700333 -6.613469774618166 7.763638431073501 -14.377108205691666 7.763638431073501
S 732.237946031455 933.3610650903404 732.237946031455 906.3321016636401
s 6.613469774618166 -7.763638431073501 14.377108205691666 -7.763638431073501
S 760.9921624428383 879.3031382369397 760.9921624428383 906.3321016636401
z" fill="none" stroke="none"></path>
<circle cx="0" cy="0" r="4.867726358356184" fill="#290e0e">
  <animateMotion begin="-4.0289985539906725s" dur="10s" repeatCount="indefinite">
    <mpath xlink:href="#path15"></mpath>
  </animateMotion>
</circle><path id="path16" d="M 630.1325819388749 939.1314496905111
c 0 27.17613325065412 -6.6494794123940935 7.805910614549589 -14.455390026943682 7.805910614549589
S 601.2218018849876 966.3075829411653 601.2218018849876 939.1314496905111
s 6.6494794123940935 -7.805910614549589 14.455390026943682 -7.805910614549589
S 630.1325819388749 911.9553164398569 630.1325819388749 939.1314496905111
z" fill="none" stroke="none"></path>
<circle cx="0" cy="0" r="4.4598670153907936" fill="#3f3f3f">
  <animateMotion begin="-5.188631018817804s" dur="10s" repeatCount="indefinite">
    <mpath xlink:href="#path16"></mpath>
  </animateMotion>
</circle><path id="path17" d="M 1739.52691960432 99.27114098120414
c 0 26.30921126510129 -6.437360203163081 7.556901108061009 -13.99426131122409 7.556901108061009
S 1711.5383969818718 125.58035224630544 1711.5383969818718 99.27114098120414
s 6.437360203163081 -7.556901108061009 13.99426131122409 -7.556901108061009
S 1739.52691960432 72.96192971610284 1739.52691960432 99.27114098120414
z" fill="none" stroke="none"></path>
<circle cx="0" cy="0" r="6.993393513509329" fill="#3f3f3f">
  <animateMotion begin="-6.477824870419207s" dur="10s" repeatCount="indefinite">
    <mpath xlink:href="#path17"></mpath>
  </animateMotion>
</circle><path id="path18" d="M 1490.266362854631 158.9859158600729
c 0 19.11221436735088 -4.676392877117768 5.489678594877381 -10.16607147199515 5.489678594877381
S 1469.9342199106409 178.09813022742378 1469.9342199106409 158.9859158600729
s 4.676392877117768 -5.489678594877381 10.16607147199515 -5.489678594877381
S 1490.266362854631 139.87370149272203 1490.266362854631 158.9859158600729
z" fill="none" stroke="none"></path>
<circle cx="0" cy="0" r="7.666701529794252" fill="#5a0b0b">
  <animateMotion begin="-7.217794694316051s" dur="10s" repeatCount="indefinite">
    <mpath xlink:href="#path18"></mpath>
  </animateMotion>
</circle><path id="path19" d="M 1312.0471136178617 186.35976886229977
c 0 18.93257333545832 -4.632438156548312 5.438079575078453 -10.070517731626765 5.438079575078453
S 1291.9060781546082 205.2923421977581 1291.9060781546082 186.35976886229977
s 4.632438156548312 -5.438079575078453 10.070517731626765 -5.438079575078453
S 1312.0471136178617 167.42719552684144 1312.0471136178617 186.35976886229977
z" fill="none" stroke="none"></path>
<circle cx="0" cy="0" r="6.337895848641191" fill="#3f3f3f">
  <animateMotion begin="-4.334803756307492s" dur="10s" repeatCount="indefinite">
    <mpath xlink:href="#path19"></mpath>
  </animateMotion>
</circle><path id="path20" d="M 1708.2886997398841 850.7278890859645
c 0 33.418541054699226 -8.176877066575342 9.598942643371055 -17.775819709946397 9.598942643371055
S 1672.7370603199915 884.1464301406637 1672.7370603199915 850.7278890859645
s 8.176877066575342 -9.598942643371055 17.775819709946397 -9.598942643371055
S 1708.2886997398841 817.3093480312654 1708.2886997398841 850.7278890859645
z" fill="none" stroke="none"></path>
<circle cx="0" cy="0" r="5.829108037802937" fill="#9c0404">
  <animateMotion begin="-5.245580078540111s" dur="10s" repeatCount="indefinite">
    <mpath xlink:href="#path20"></mpath>
  </animateMotion>
</circle><path id="path21" d="M 140.00453395168398 566.3523976337984
c 0 32.30608995343005 -7.904681584349906 9.279408816410761 -17.184090400760667 9.279408816410761
S 105.63635315016266 598.6584875872285 105.63635315016266 566.3523976337984
s 7.904681584349906 -9.279408816410761 17.184090400760667 -9.279408816410761
S 140.00453395168398 534.0463076803684 140.00453395168398 566.3523976337984
z" fill="none" stroke="none"></path>
<circle cx="0" cy="0" r="6.836412616993023" fill="#5a0b0b">
  <animateMotion begin="-1.7118236316139823s" dur="10s" repeatCount="indefinite">
    <mpath xlink:href="#path21"></mpath>
  </animateMotion>
</circle><path id="path22" d="M 691.8749570618736 439.626743917571
c 0 31.946702986239472 -7.8167464753564655 9.17618064498368 -16.992927120340145 9.17618064498368
S 657.8891028211933 471.57344690381046 657.8891028211933 439.626743917571
s 7.8167464753564655 -9.17618064498368 16.992927120340145 -9.17618064498368
S 691.8749570618736 407.6800409313315 691.8749570618736 439.626743917571
z" fill="none" stroke="none"></path>
<circle cx="0" cy="0" r="7.688803713565296" fill="#290e0e">
  <animateMotion begin="-2.7245669579410547s" dur="10s" repeatCount="indefinite">
    <mpath xlink:href="#path22"></mpath>
  </animateMotion>
</circle><path id="path23" d="M 856.1142204324681 413.74064745522867
c 0 32.29782985969788 -7.902660497585651 9.2770362362962 -17.17969673388185 9.2770362362962
S 821.7548269647043 446.0384773149265 821.7548269647043 413.74064745522867
s 7.902660497585651 -9.2770362362962 17.17969673388185 -9.2770362362962
S 856.1142204324681 381.4428175955308 856.1142204324681 413.74064745522867
z" fill="none" stroke="none"></path>
<circle cx="0" cy="0" r="6.067799899109622" fill="#3f3f3f">
  <animateMotion begin="-2.866300686135983s" dur="10s" repeatCount="indefinite">
    <mpath xlink:href="#path23"></mpath>
  </animateMotion>
</circle><path id="path24" d="M 508.7754094018747 891.5502463350775
c 0 25.501368484416616 -6.239696544059384 7.324861160417539 -13.564557704476922 7.324861160417539
S 481.6462939929209 917.0516148194941 481.6462939929209 891.5502463350775
s 6.239696544059384 -7.324861160417539 13.564557704476922 -7.324861160417539
S 508.7754094018747 866.0488778506609 508.7754094018747 891.5502463350775
z" fill="none" stroke="none"></path>
<circle cx="0" cy="0" r="6.547410874076436" fill="#290e0e">
  <animateMotion begin="-6.21353290006351s" dur="10s" repeatCount="indefinite">
    <mpath xlink:href="#path24"></mpath>
  </animateMotion>
</circle><path id="path25" d="M 755.7098820069177 757.1401835451022
c 0 31.303696637180536 -7.659415134629279 8.991487331956112 -16.650902466585393 8.991487331956112
S 722.4080770737469 788.4438801822828 722.4080770737469 757.1401835451022
s 7.659415134629279 -8.991487331956112 16.650902466585393 -8.991487331956112
S 755.7098820069177 725.8364869079217 755.7098820069177 757.1401835451022
z" fill="none" stroke="none"></path>
<circle cx="0" cy="0" r="5.288840038997961" fill="#3f3f3f">
  <animateMotion begin="-2.22455451558887s" dur="10s" repeatCount="indefinite">
    <mpath xlink:href="#path25"></mpath>
  </animateMotion>
</circle><path id="path26" d="M 596.6753876023124 772.97765660583
c 0 33.01483606902966 -8.078098187103002 9.482984828338308 -17.56108301544131 9.482984828338308
S 561.5532215714297 805.9924926748597 561.5532215714297 772.97765660583
s 8.078098187103002 -9.482984828338308 17.56108301544131 -9.482984828338308
S 596.6753876023124 739.9628205368003 596.6753876023124 772.97765660583
z" fill="none" stroke="none"></path>
<circle cx="0" cy="0" r="4.790741129411874" fill="#290e0e">
  <animateMotion begin="-4.274142924324478s" dur="10s" repeatCount="indefinite">
    <mpath xlink:href="#path26"></mpath>
  </animateMotion>
</circle><path id="path27" d="M 1155.7462827455342 315.28594294801593
c 0 25.817680402350774 -6.317092013341146 7.41571671131352 -13.732808724654666 7.41571671131352
S 1128.280665296225 341.1036233503667 1128.280665296225 315.28594294801593
s 6.317092013341146 -7.41571671131352 13.732808724654666 -7.41571671131352
S 1155.7462827455342 289.46826254566514 1155.7462827455342 315.28594294801593
z" fill="none" stroke="none"></path>
<circle cx="0" cy="0" r="6.1089848545095125" fill="#5a0b0b">
  <animateMotion begin="-8.958311275500757s" dur="10s" repeatCount="indefinite">
    <mpath xlink:href="#path27"></mpath>
  </animateMotion>
</circle><path id="path28" d="M 212.2439832646026 726.1062810381926
c 0 25.527713537663967 -6.246142674109268 7.332428356563054 -13.578571030672322 7.332428356563054
S 185.08684120325796 751.6339945758566 185.08684120325796 726.1062810381926
s 6.246142674109268 -7.332428356563054 13.578571030672322 -7.332428356563054
S 212.2439832646026 700.5785675005286 212.2439832646026 726.1062810381926
z" fill="none" stroke="none"></path>
<circle cx="0" cy="0" r="7.997281527590859" fill="#5a0b0b">
  <animateMotion begin="-8.974647794310517s" dur="10s" repeatCount="indefinite">
    <mpath xlink:href="#path28"></mpath>
  </animateMotion>
</circle><path id="path29" d="M 1548.452341975845 12.57380969896142
c 0 30.63526540508883 -7.495862811883437 8.799491126993601 -16.29535393887704 8.799491126993601
S 1515.861634098091 43.20907510405025 1515.861634098091 12.57380969896142
s 7.495862811883437 -8.799491126993601 16.29535393887704 -8.799491126993601
S 1548.452341975845 -18.06145570612741 1548.452341975845 12.57380969896142
z" fill="none" stroke="none"></path>
<circle cx="0" cy="0" r="5.7201214777221" fill="#3f3f3f">
  <animateMotion begin="-9.492186604194186s" dur="10s" repeatCount="indefinite">
    <mpath xlink:href="#path29"></mpath>
  </animateMotion>
</circle><path id="path30" d="M 955.0313833801712 904.7903400127834
c 0 34.26355718648574 -8.38363633286353 9.841660042926755 -18.225296375790286 9.841660042926755
S 918.5807906285905 939.0538971992692 918.5807906285905 904.7903400127834
s 8.38363633286353 -9.841660042926755 18.225296375790286 -9.841660042926755
S 955.0313833801712 870.5267828262977 955.0313833801712 904.7903400127834
z" fill="none" stroke="none"></path>
<circle cx="0" cy="0" r="7.0916669724101995" fill="#290e0e">
  <animateMotion begin="-9.372162093194712s" dur="10s" repeatCount="indefinite">
    <mpath xlink:href="#path30"></mpath>
  </animateMotion>
</circle><path id="path31" d="M 956.9504323670848 132.7696110256387
c 0 22.62360120229204 -5.535561996305498 6.498268430445586 -12.033830426751084 6.498268430445586
S 932.8827715135825 155.39321222793075 932.8827715135825 132.7696110256387
s 5.535561996305498 -6.498268430445586 12.033830426751084 -6.498268430445586
S 956.9504323670848 110.14600982334667 956.9504323670848 132.7696110256387
z" fill="none" stroke="none"></path>
<circle cx="0" cy="0" r="4.553660150967066" fill="#000000">
  <animateMotion begin="-4.308222758903851s" dur="10s" repeatCount="indefinite">
    <mpath xlink:href="#path31"></mpath>
  </animateMotion>
</circle><path id="path32" d="M 1193.9685421618701 95.74901928018043
c 0 35.556368137384815 -8.699962416594156 10.212999358610533 -18.91296177520469 10.212999358610533
S 1156.1426186114609 131.30538741756524 1156.1426186114609 95.74901928018043
s 8.699962416594156 -10.212999358610533 18.91296177520469 -10.212999358610533
S 1193.9685421618701 60.19265114279562 1193.9685421618701 95.74901928018043
z" fill="none" stroke="none"></path>
<circle cx="0" cy="0" r="5.227849838700288" fill="#000000">
  <animateMotion begin="-4.755134571988693s" dur="10s" repeatCount="indefinite">
    <mpath xlink:href="#path32"></mpath>
  </animateMotion>
</circle><path id="path33" d="M 149.7943274497469 742.4246726215899
c 0 23.8474194908171 -5.83500689668929 6.849790704809167 -12.684797601498456 6.849790704809167
S 124.42473224675 766.272092112407 124.42473224675 742.4246726215899
s 5.83500689668929 -6.849790704809167 12.684797601498456 -6.849790704809167
S 149.7943274497469 718.5772531307729 149.7943274497469 742.4246726215899
z" fill="none" stroke="none"></path>
<circle cx="0" cy="0" r="4.404389557624732" fill="#3f3f3f">
  <animateMotion begin="-8.627102408114204s" dur="10s" repeatCount="indefinite">
    <mpath xlink:href="#path33"></mpath>
  </animateMotion>
</circle><path id="path34" d="M 250.56072197008734 222.5843839903301
c 0 30.415107522173855 -7.44199439372339 8.73625428828398 -16.17824868200737 8.73625428828398
S 218.20422460607261 252.99949151250397 218.20422460607261 222.5843839903301
s 7.44199439372339 -8.73625428828398 16.17824868200737 -8.73625428828398
S 250.56072197008734 192.16927646815626 250.56072197008734 222.5843839903301
z" fill="none" stroke="none"></path>
<circle cx="0" cy="0" r="6.533747211677569" fill="#3f3f3f">
  <animateMotion begin="-7.50234591746219s" dur="10s" repeatCount="indefinite">
    <mpath xlink:href="#path34"></mpath>
  </animateMotion>
</circle><path id="path35" d="M 53.75265483323433 67.74659998822973
c 0 33.52531610575968 -8.203002876941197 9.629612072930971 -17.832614949872166 9.629612072930971
S 18.08742493349 101.2719160939894 18.08742493349 67.74659998822973
s 8.203002876941197 -9.629612072930971 17.832614949872166 -9.629612072930971
S 53.75265483323433 34.221283882470054 53.75265483323433 67.74659998822973
z" fill="none" stroke="none"></path>
<circle cx="0" cy="0" r="4.933725524727641" fill="#000000">
  <animateMotion begin="-7.591724206157567s" dur="10s" repeatCount="indefinite">
    <mpath xlink:href="#path35"></mpath>
  </animateMotion>
</circle><path id="path36" d="M 1323.9861143730002 656.5606569389391
c 0 36.305670437299675 -8.883302341041409 10.428224487309482 -19.311526828350893 10.428224487309482
S 1285.3630607162984 692.8663273762388 1285.3630607162984 656.5606569389391
s 8.883302341041409 -10.428224487309482 19.311526828350893 -10.428224487309482
S 1323.9861143730002 620.2549865016395 1323.9861143730002 656.5606569389391
z" fill="none" stroke="none"></path>
<circle cx="0" cy="0" r="6.965058734737207" fill="#9c0404">
  <animateMotion begin="-2.0640649288740165s" dur="10s" repeatCount="indefinite">
    <mpath xlink:href="#path36"></mpath>
  </animateMotion>
</circle><path id="path37" d="M 651.9727607472098 631.7442527851402
c 0 32.20864148008712 -7.880837808957485 9.251418297471831 -17.132256106429317 9.251418297471831
S 617.7082485343512 663.9528942652273 617.7082485343512 631.7442527851402
s 7.880837808957485 -9.251418297471831 17.132256106429317 -9.251418297471831
S 651.9727607472098 599.5356113050532 651.9727607472098 631.7442527851402
z" fill="none" stroke="none"></path>
<circle cx="0" cy="0" r="5.311292050571225" fill="#5a0b0b">
  <animateMotion begin="-8.930020458875509s" dur="10s" repeatCount="indefinite">
    <mpath xlink:href="#path37"></mpath>
  </animateMotion>
</circle><path id="path38" d="M 1568.5448227061083 493.14743311922484
c 0 24.822058922001396 -6.073482502191831 7.129740328659976 -13.203222830851807 7.129740328659976
S 1542.138377044405 517.9694920412262 1542.138377044405 493.14743311922484
s 6.073482502191831 -7.129740328659976 13.203222830851807 -7.129740328659976
S 1568.5448227061083 468.3253741972234 1568.5448227061083 493.14743311922484
z" fill="none" stroke="none"></path>
<circle cx="0" cy="0" r="4.303713753551606" fill="#5a0b0b">
  <animateMotion begin="-0.5589714843205185s" dur="10s" repeatCount="indefinite">
    <mpath xlink:href="#path38"></mpath>
  </animateMotion>
</circle><path id="path39" d="M 1447.956326679128 877.1712476088137
c 0 35.98405276488983 -8.804608655239 10.335844943106654 -19.140453598345655 10.335844943106654
S 1409.6754194824368 913.1553003737035 1409.6754194824368 877.1712476088137
s 8.804608655239 -10.335844943106654 19.140453598345655 -10.335844943106654
S 1447.956326679128 841.1871948439239 1447.956326679128 877.1712476088137
z" fill="none" stroke="none"></path>
<circle cx="0" cy="0" r="6.394800912654064" fill="#290e0e">
  <animateMotion begin="-5.991410952669445s" dur="10s" repeatCount="indefinite">
    <mpath xlink:href="#path39"></mpath>
  </animateMotion>
</circle><path id="path40" d="M 778.154341783423 860.9808313897963
c 0 25.59948530935123 -6.263703852288066 7.353043652685992 -13.616747504974057 7.353043652685992
S 750.920846773475 886.5803166991476 750.920846773475 860.9808313897963
s 6.263703852288066 -7.353043652685992 13.616747504974057 -7.353043652685992
S 778.154341783423 835.381346080445 778.154341783423 860.9808313897963
z" fill="none" stroke="none"></path>
<circle cx="0" cy="0" r="7.087169046016372" fill="#000000">
  <animateMotion begin="-2.7762839650006987s" dur="10s" repeatCount="indefinite">
    <mpath xlink:href="#path40"></mpath>
  </animateMotion>
</circle><path id="path41" d="M 1259.5122826044162 408.4504306824784
c 0 35.90750277283534 -8.785878338034179 10.313857179431428 -19.099735517465607 10.313857179431428
S 1221.312811569485 444.35793345531374 1221.312811569485 408.4504306824784
s 8.785878338034179 -10.313857179431428 19.099735517465607 -10.313857179431428
S 1259.5122826044162 372.542927909643 1259.5122826044162 408.4504306824784
z" fill="none" stroke="none"></path>
<circle cx="0" cy="0" r="5.791908027911794" fill="#290e0e">
  <animateMotion begin="-9.191891105716344s" dur="10s" repeatCount="indefinite">
    <mpath xlink:href="#path41"></mpath>
  </animateMotion>
</circle><path id="path42" d="M 1905.1279641735127 298.30272245548747
c 0 22.431297433370766 -5.488508946463059 6.443032241500114 -11.931541187963173 6.443032241500114
S 1881.2648817975864 320.73401988885826 1881.2648817975864 298.30272245548747
s 5.488508946463059 -6.443032241500114 11.931541187963173 -6.443032241500114
S 1905.1279641735127 275.8714250221167 1905.1279641735127 298.30272245548747
z" fill="none" stroke="none"></path>
<circle cx="0" cy="0" r="7.050933484813673" fill="#5a0b0b">
  <animateMotion begin="-3.7450658653935576s" dur="10s" repeatCount="indefinite">
    <mpath xlink:href="#path42"></mpath>
  </animateMotion>
</circle><path id="path43" d="M 102.11435889189273 535.1509213105926
c 0 21.172675356515473 -5.180548225530382 6.081513134318275 -11.262061359848657 6.081513134318275
S 79.59023617219542 556.3235966671081 79.59023617219542 535.1509213105926
s 5.180548225530382 -6.081513134318275 11.262061359848657 -6.081513134318275
S 102.11435889189273 513.9782459540771 102.11435889189273 535.1509213105926
z" fill="none" stroke="none"></path>
<circle cx="0" cy="0" r="5.652506876194899" fill="#3f3f3f">
  <animateMotion begin="-0.4228276802207165s" dur="10s" repeatCount="indefinite">
    <mpath xlink:href="#path43"></mpath>
  </animateMotion>
</circle><path id="path44" d="M 466.0687672687742 852.9183152826804
c 0 33.93247990462805 -8.302628061770694 9.74656337686125 -18.049191438631944 9.74656337686125
S 429.97038439151027 886.8507951873084 429.97038439151027 852.9183152826804
s 8.302628061770694 -9.74656337686125 18.049191438631944 -9.74656337686125
S 466.0687672687742 818.9858353780523 466.0687672687742 852.9183152826804
z" fill="none" stroke="none"></path>
<circle cx="0" cy="0" r="4.937083714439477" fill="#5a0b0b">
  <animateMotion begin="-8.707082336196109s" dur="10s" repeatCount="indefinite">
    <mpath xlink:href="#path44"></mpath>
  </animateMotion>
</circle><path id="path45" d="M 802.0516139343848 935.2236778747485
c 0 27.21710227786929 -6.659503748840357 7.817678313856073 -14.47718206269643 7.817678313856073
S 773.0972498089919 962.4407801526179 773.0972498089919 935.2236778747485
s 6.659503748840357 -7.817678313856073 14.47718206269643 -7.817678313856073
S 802.0516139343848 908.0065755968792 802.0516139343848 935.2236778747485
z" fill="none" stroke="none"></path>
<circle cx="0" cy="0" r="5.562423509432891" fill="#3f3f3f">
  <animateMotion begin="-0.21459886105990478s" dur="10s" repeatCount="indefinite">
    <mpath xlink:href="#path45"></mpath>
  </animateMotion>
</circle><path id="path46" d="M 811.7125089132517 72.99411146141419
c 0 27.738866080362214 -6.787169360088626 7.9675466401040405 -14.754716000192667 7.9675466401040405
S 782.2030769128664 100.7329775417764 782.2030769128664 72.99411146141419
s 6.787169360088626 -7.9675466401040405 14.754716000192667 -7.9675466401040405
S 811.7125089132517 45.25524538105198 811.7125089132517 72.99411146141419
z" fill="none" stroke="none"></path>
<circle cx="0" cy="0" r="6.219543005475282" fill="#9c0404">
  <animateMotion begin="-6.699961217887793s" dur="10s" repeatCount="indefinite">
    <mpath xlink:href="#path46"></mpath>
  </animateMotion>
</circle><path id="path47" d="M 882.3615451745454 892.3451363049501
c 0 22.378732976538355 -5.475647430429597 6.427933940069528 -11.903581370499126 6.427933940069528
S 858.5543824335471 914.7238692814884 858.5543824335471 892.3451363049501
s 5.475647430429597 -6.427933940069528 11.903581370499126 -6.427933940069528
S 882.3615451745454 869.9664033284117 882.3615451745454 892.3451363049501
z" fill="none" stroke="none"></path>
<circle cx="0" cy="0" r="6.54914657492724" fill="#5a0b0b">
  <animateMotion begin="-8.017874123244972s" dur="10s" repeatCount="indefinite">
    <mpath xlink:href="#path47"></mpath>
  </animateMotion>
</circle><path id="path48" d="M 1732.3578915370301 264.9417806394755
c 0 26.606789064260422 -6.510171792319039 7.642375582287569 -14.152547374606607 7.642375582287569
S 1704.0527967878168 291.5485697037359 1704.0527967878168 264.9417806394755
s 6.510171792319039 -7.642375582287569 14.152547374606607 -7.642375582287569
S 1732.3578915370301 238.33499157521507 1732.3578915370301 264.9417806394755
z" fill="none" stroke="none"></path>
<circle cx="0" cy="0" r="4.271106285132768" fill="#290e0e">
  <animateMotion begin="-8.418210099326123s" dur="10s" repeatCount="indefinite">
    <mpath xlink:href="#path48"></mpath>
  </animateMotion>
</circle><path id="path49" d="M 1905.7856112751233 820.6956810044353
c 0 36.15671908060081 -8.846856796317217 10.385440586981083 -19.2322973832983 10.385440586981083
S 1867.3210165085266 856.8524000850362 1867.3210165085266 820.6956810044353
s 8.846856796317217 -10.385440586981083 19.2322973832983 -10.385440586981083
S 1905.7856112751233 784.5389619238344 1905.7856112751233 820.6956810044353
z" fill="none" stroke="none"></path>
<circle cx="0" cy="0" r="4.489934918771418" fill="#5a0b0b">
  <animateMotion begin="-9.153740150853443s" dur="10s" repeatCount="indefinite">
    <mpath xlink:href="#path49"></mpath>
  </animateMotion>
</circle></g>
</svg>